PathFileType	4	(X/Y/Z)	Patient4_TMGait_0pt7_02_left_33.trc.trc
DataRate	CameraRate	NumFrames	NumMarkers	Units	OrigDataRate	OrigDataStartFrame	OrigNumFrames
86.419753086420	86.419753086420	4	33	mm	86.419753086420	36	       141
Frame#	Time	Sacral			L.Shoulder			Chest			R.Shoulder			Neck			R.ASIS			L.ASIS			R.Thigh.Superior			R.Thigh.Lateral			R.Thigh.Inferior			R.Patella			L.Thigh.Superior			L.Thigh.Lateral			L.Thigh.Inferior			L.Patella			L.Shank.Superior			L.Shank.Lateral			L.Shank.Inferior			R.Shank.Superior			R.Shank.Lateral			R.Shank.Inferior			R.Heel			R.Midfoot.Superior			R.Midfoot.Lateral			R.Toe			L.Heel			L.Midfoot.Lateral			L.Midfoot.Superior			L.Toe			L.Elbow			L.Wrist			R.Elbow			R.Wrist			
		X1	Y1	Z1	X2	Y2	Z2	X3	Y3	Z3	X4	Y4	Z4	X5	Y5	Z5	X6	Y6	Z6	X7	Y7	Z7	X8	Y8	Z8	X9	Y9	Z9	X10	Y10	Z10	X11	Y11	Z11	X12	Y12	Z12	X13	Y13	Z13	X14	Y14	Z14	X15	Y15	Z15	X16	Y16	Z16	X17	Y17	Z17	X18	Y18	Z18	X19	Y19	Z19	X20	Y20	Z20	X21	Y21	Z21	X22	Y22	Z22	X23	Y23	Z23	X24	Y24	Z24	X25	Y25	Z25	X26	Y26	Z26	X27	Y27	Z27	X28	Y28	Z28	X29	Y29	Z29	X30	Y30	Z30	X31	Y31	Z31	X32	Y32	Z32	X33	Y33	Z33	

36	38.115000000000	895.759745239279	1009.771330584999	461.951606058909	1076.018630310266	1413.856415786185	249.571443414222	1198.910430804760	1340.383829960253	394.920328188422	1151.848435200391	1429.273711870071	573.719093104599	1107.185893413704	1479.129409499684	399.550624086208	1120.289497803114	927.428716955986	563.186727639059	1093.969868043485	940.000924075474	289.951152138850	1129.787103003780	715.969903826177	543.385421274198	1035.474604230634	618.559702150348	611.440550540679	1102.448271536197	550.839748899113	533.392800933613	1082.714759183125	448.016517560964	549.975860535271	1171.441453117870	763.945143740921	324.879941776623	1107.664093944223	635.170622098757	260.037345803977	1209.444508671865	572.970737331860	319.173456622970	1224.784036376934	500.899037799499	325.408640089969	1199.267274697113	424.316140023131	317.280421683989	1113.900470566832	307.911017745951	262.655741987294	1169.965678070513	196.501768486438	330.322322904928	1011.067282738295	382.201285829343	560.071498226669	899.170504922440	329.933681441125	628.204937875215	891.529073547301	222.070953392923	574.024296761991	694.968630632677	122.062782244178	556.658891214959	875.016118950457	114.389696488827	590.936696274481	771.135947040226	86.575856541892	629.961212656579	967.501384504913	33.459322715431	618.699229308858	1045.860808708399	38.763679146163	366.531430479647	1122.098223808022	36.037606617822	287.716342709644	1203.478957286940	97.593911215788	316.907118468057	1333.433785789155	46.429669263774	292.762756963464	906.201014473683	1099.712588186267	181.965753084825	838.916523464398	848.729800997881	205.900347606911	1305.450070490219	1124.956489882798	662.784788621858	1434.805868268082	1279.887049298202	518.857116820805	
37	38.126571428571	895.124591333918	1011.516039851801	459.244646412169	1076.012941033236	1415.319735179607	246.892949254572	1198.424526497474	1342.286610361886	392.837057591402	1150.565414915710	1431.588269375430	571.247785631855	1106.628499050526	1480.897550974915	396.704389684336	1119.396515089581	929.279115185055	561.256772208094	1094.010933387844	941.889441685811	288.111178520648	1133.562566488110	718.866837204981	541.600509989300	1041.526981274037	619.540055610933	609.454842905066	1110.775230261583	552.779290195103	531.827709576324	1092.108405736825	448.362344835716	549.379868925051	1169.813679940400	763.274612945173	322.523329913581	1104.037632951875	635.302919479454	258.946389009798	1204.772826616081	572.004876519524	318.579186410534	1219.114245163560	500.122737989975	325.181147536620	1193.088337516803	423.915445289472	316.925891274858	1107.214734227361	307.904686660303	262.360773380069	1162.487651992611	196.312707612717	330.260262821742	1018.103505361344	383.716944535212	558.901790046289	903.801714137699	335.666072118445	626.141636940699	893.408789834026	227.576910756424	572.961669474253	693.981986922680	135.650463996259	554.412411311353	873.305967744056	119.109789514753	590.471066707430	767.666541561637	96.567527008785	628.375550774717	960.812782566153	32.926747829148	618.773599279951	1037.806222627652	38.729892599536	366.478404056217	1114.032220311849	36.075760077028	287.670790738017	1195.392069990363	97.649118468363	316.877214303454	1325.365226716207	46.473556958975	292.664602724550	911.189755126919	1097.928175051961	178.120643420101	852.769510786316	844.486673992984	201.249595915680	1297.101496325152	1123.135081256886	662.345618257348	1432.469007361501	1270.982292409146	516.506061562340	
38	38.138142857143	894.347738675125	1013.135607849458	456.628488367932	1075.999661251173	1416.776164968208	244.345397928159	1197.798215126001	1344.187129179971	390.989795493359	1148.915841575080	1433.824472207443	569.003583582681	1105.832084470241	1482.615713099742	394.021997078733	1118.393135271012	931.085563233442	559.473116784757	1093.943484359073	943.698442215480	286.467090021916	1137.455506086892	721.977169771347	539.862140740097	1047.882293720722	620.712601833526	607.548434089657	1119.303619022644	555.057560702912	530.225643941601	1101.812423191970	449.163860181295	548.581410265324	1167.837851692943	762.447894859555	320.499403074332	1100.260293810944	635.448622061630	257.927451469380	1199.796176584109	571.025995841809	318.251621575139	1213.108975977691	499.315170017887	325.112114081288	1186.620055752046	423.504596623173	316.670619992690	1100.328124074039	307.837645652136	262.149725386768	1154.890090898955	196.107864238595	330.279883613769	1025.657835090533	385.495589612048	557.625583608168	909.143202818673	341.627224839900	623.956287145613	895.997867868981	233.428116149792	571.762572085393	694.155148499943	149.632280430561	551.849898582146	872.274889872458	124.339514843240	589.900832827856	765.105627769231	107.142815371813	626.576866568064	954.639265727245	32.779847152681	618.958778158979	1029.734023057180	38.686145506141	366.469446383810	1105.939667366846	36.070159219494	287.663834026716	1187.314257907426	97.618484025982	316.877271831338	1317.287073907915	46.360348267132	292.583169936881	916.294843319313	1096.253458662654	174.157562723066	867.642806711480	840.464884057284	196.239654800414	1287.970665052474	1121.318072250734	662.263021542266	1430.354733421472	1260.606791995127	514.641183623373	
39	38.149714285714	893.416679543893	1014.582564831835	454.117822565244	1075.969738592308	1418.186899054319	241.945619206908	1197.031401329909	1346.032244980009	389.383321329121	1146.928852279008	1435.924084233071	567.001035465160	1104.814959788813	1484.248611403136	391.531042559121	1117.282121244203	932.812509754838	557.812428653590	1093.749987431800	945.384004334144	284.967503481388	1141.370698223100	725.276218722582	538.104114730872	1054.483818402317	622.084166777739	605.706978453586	1127.919615806473	557.682533471439	528.541945828733	1111.754485578330	450.423274276289	547.558620170155	1165.615193927446	761.547987425384	318.775635210119	1096.423670052012	635.615089397175	256.957071630306	1194.651654917458	570.065682413665	318.096283006401	1206.927454270308	498.498933502615	325.135399408694	1180.013691075791	423.087148730911	316.479252459675	1093.354477194928	307.737616981827	261.981074700611	1147.233446647219	195.892894261618	330.358270740876	1033.667241555926	387.525311278864	556.247057558256	915.151236280629	347.733342055021	621.677156065717	899.317272202492	239.527803729811	570.457849079099	695.529465401342	163.705017393990	549.058197305983	872.007221562147	129.976729226430	589.236871366462	763.577389965722	118.068069067055	624.620611266256	949.185702926652	33.162847297224	619.236422650385	1021.640466294600	38.648527723234	366.484014298497	1097.821753060851	36.040641908602	287.680904852272	1179.245881977274	97.522812725361	316.901604348276	1309.200075473160	46.112456303635	292.519795908103	921.552784212092	1094.636844523046	170.097068555587	883.471536843599	836.737065281182	190.912056067765	1278.168685230368	1119.514058394306	662.495505591048	1428.373895953642	1248.723503068002	513.333534712344	
